<svg width="32" height="32" viewBox="0 0 32 32" fill="none" xmlns="http://www.w3.org/2000/svg">
<path fill-rule="evenodd" clip-rule="evenodd" d="M1.66663 16C1.66663 8.08388 8.08388 1.66663 16 1.66663C23.916 1.66663 30.3333 8.08388 30.3333 16C30.3333 23.916 23.916 30.3333 16 30.3333C8.08388 30.3333 1.66663 23.916 1.66663 16ZM14.6666 21.3333C14.6666 20.597 15.2609 20 15.994 20H16.0059C16.739 20 17.3333 20.597 17.3333 21.3333C17.3333 22.0697 16.739 22.6667 16.0059 22.6667H15.994C15.2609 22.6667 14.6666 22.0697 14.6666 21.3333ZM14.6666 16C14.6666 16.7364 15.2636 17.3333 16 17.3333C16.7363 17.3333 17.3333 16.7364 17.3333 16V10.6667C17.3333 9.93029 16.7363 9.33333 16 9.33333C15.2636 9.33333 14.6666 9.93029 14.6666 10.6667L14.6666 16Z" fill="#FAFAFA"/>
</svg>
