<svg width="19" height="18" viewBox="0 0 19 18" fill="none" xmlns="http://www.w3.org/2000/svg">
<path opacity="0.4" d="M9.5 0.875C9.84518 0.875 10.125 1.15482 10.125 1.5C10.125 3.17173 10.9672 4.89577 12.2857 6.21431C13.6042 7.53284 15.3283 8.375 17 8.375C17.3452 8.375 17.625 8.65482 17.625 9C17.625 9.34518 17.3452 9.625 17 9.625C15.3283 9.625 13.6042 10.4672 12.2857 11.7857C10.9672 13.1042 10.125 14.8283 10.125 16.5C10.125 16.8452 9.84518 17.125 9.5 17.125C9.15482 17.125 8.875 16.8452 8.875 16.5C8.875 14.8283 8.03284 13.1042 6.71431 11.7857C5.39577 10.4672 3.67173 9.625 2 9.625C1.65482 9.625 1.375 9.34518 1.375 9C1.375 8.65482 1.65482 8.375 2 8.375C3.67173 8.375 5.39577 7.53284 6.71431 6.21431C8.03284 4.89577 8.875 3.17173 8.875 1.5C8.875 1.15482 9.15482 0.875 9.5 0.875Z" fill="#FAFAFA"/>
<path d="M15.5417 0.041626C15.7196 0.041626 15.8737 0.16491 15.9128 0.338458L16.108 1.20497C16.2413 1.79664 16.7033 2.25869 17.295 2.39197L18.1615 2.58716C18.3351 2.62625 18.4583 2.7804 18.4583 2.95829C18.4583 3.13619 18.3351 3.29033 18.1615 3.32943L17.295 3.52462C16.7033 3.6579 16.2413 4.11995 16.108 4.71161L15.9128 5.57813C15.8737 5.75168 15.7196 5.87496 15.5417 5.87496C15.3638 5.87496 15.2096 5.75168 15.1705 5.57813L14.9753 4.71161C14.8421 4.11995 14.38 3.6579 13.7883 3.52462L12.9218 3.32943C12.7483 3.29033 12.625 3.13619 12.625 2.95829C12.625 2.7804 12.7483 2.62625 12.9218 2.58716L13.7883 2.39197C14.38 2.25869 14.8421 1.79664 14.9753 1.20497L15.1705 0.338458C15.2096 0.16491 15.3638 0.041626 15.5417 0.041626Z" fill="#FAFAFA"/>
<path d="M3.45832 12.125C3.63622 12.125 3.79036 12.2483 3.82946 12.4218L4.02465 13.2883C4.15793 13.88 4.61998 14.3421 5.21164 14.4753L6.07816 14.6705C6.25171 14.7096 6.37499 14.8638 6.37499 15.0417C6.37499 15.2196 6.25171 15.3737 6.07816 15.4128L5.21164 15.608C4.61998 15.7413 4.15793 16.2033 4.02465 16.795L3.82946 17.6615C3.79036 17.8351 3.63622 17.9583 3.45832 17.9583C3.28043 17.9583 3.12628 17.8351 3.08719 17.6615L2.892 16.795C2.75872 16.2033 2.29667 15.7413 1.705 15.608L0.838489 15.4128C0.664941 15.3737 0.541656 15.2196 0.541656 15.0417C0.541656 14.8638 0.664941 14.7096 0.838489 14.6705L1.705 14.4753C2.29667 14.3421 2.75872 13.88 2.892 13.2883L3.08719 12.4218C3.12628 12.2483 3.28043 12.125 3.45832 12.125Z" fill="#FAFAFA"/>
</svg>
