<svg width="21" height="20" viewBox="0 0 21 20" fill="none" xmlns="http://www.w3.org/2000/svg">
<path opacity="0.4" d="M10.5 1.875C10.8452 1.875 11.125 2.15482 11.125 2.5C11.125 4.17173 11.9672 5.89577 13.2857 7.21431C14.6042 8.53284 16.3283 9.375 18 9.375C18.3452 9.375 18.625 9.65482 18.625 10C18.625 10.3452 18.3452 10.625 18 10.625C16.3283 10.625 14.6042 11.4672 13.2857 12.7857C11.9672 14.1042 11.125 15.8283 11.125 17.5C11.125 17.8452 10.8452 18.125 10.5 18.125C10.1548 18.125 9.875 17.8452 9.875 17.5C9.875 15.8283 9.03284 14.1042 7.71431 12.7857C6.39577 11.4672 4.67173 10.625 3 10.625C2.65482 10.625 2.375 10.3452 2.375 10C2.375 9.65482 2.65482 9.375 3 9.375C4.67173 9.375 6.39577 8.53284 7.71431 7.21431C9.03284 5.89577 9.875 4.17173 9.875 2.5C9.875 2.15482 10.1548 1.875 10.5 1.875Z" fill="#FAFAFA"/>
<path d="M16.5417 1.04163C16.7196 1.04163 16.8737 1.16491 16.9128 1.33846L17.108 2.20497C17.2413 2.79664 17.7033 3.25869 18.295 3.39197L19.1615 3.58716C19.3351 3.62625 19.4583 3.7804 19.4583 3.95829C19.4583 4.13619 19.3351 4.29033 19.1615 4.32943L18.295 4.52462C17.7033 4.6579 17.2413 5.11995 17.108 5.71161L16.9128 6.57813C16.8737 6.75168 16.7196 6.87496 16.5417 6.87496C16.3638 6.87496 16.2096 6.75168 16.1705 6.57813L15.9753 5.71161C15.8421 5.11995 15.38 4.6579 14.7883 4.52462L13.9218 4.32943C13.7483 4.29033 13.625 4.13619 13.625 3.95829C13.625 3.7804 13.7483 3.62625 13.9218 3.58716L14.7883 3.39197C15.38 3.25869 15.8421 2.79664 15.9753 2.20497L16.1705 1.33846C16.2096 1.16491 16.3638 1.04163 16.5417 1.04163Z" fill="#FAFAFA"/>
<path d="M4.45832 13.125C4.63622 13.125 4.79036 13.2483 4.82946 13.4218L5.02465 14.2883C5.15793 14.88 5.61998 15.3421 6.21164 15.4753L7.07816 15.6705C7.25171 15.7096 7.37499 15.8638 7.37499 16.0417C7.37499 16.2196 7.25171 16.3737 7.07816 16.4128L6.21164 16.608C5.61998 16.7413 5.15793 17.2033 5.02465 17.795L4.82946 18.6615C4.79036 18.8351 4.63622 18.9583 4.45832 18.9583C4.28043 18.9583 4.12628 18.8351 4.08719 18.6615L3.892 17.795C3.75872 17.2033 3.29667 16.7413 2.705 16.608L1.83849 16.4128C1.66494 16.3737 1.54166 16.2196 1.54166 16.0417C1.54166 15.8638 1.66494 15.7096 1.83849 15.6705L2.705 15.4753C3.29667 15.3421 3.75872 14.88 3.892 14.2883L4.08719 13.4218C4.12628 13.2483 4.28043 13.125 4.45832 13.125Z" fill="#FAFAFA"/>
</svg>
